<?xml version="1.0" standalone="no"?>
<!DOCTYPE svg PUBLIC "-//W3C//DTD SVG 20010904//EN"
 "http://www.w3.org/TR/2001/REC-SVG-20010904/DTD/svg10.dtd">
<svg version="1.0" xmlns="http://www.w3.org/2000/svg"
 width="1024.000000pt" height="1024.000000pt" viewBox="0 0 1024.000000 1024.000000"
 preserveAspectRatio="xMidYMid meet">
<metadata>
Created by potrace 1.11, written by Peter Selinger 2001-2013
</metadata>
<g transform="translate(0.000000,1024.000000) scale(0.100000,-0.100000)"
fill="#000000" stroke="none">
<path d="M5533 10012 c-28 -15 -82 -46 -120 -70 -37 -24 -160 -101 -273 -170
-113 -70 -241 -150 -284 -177 -44 -28 -98 -61 -121 -75 -182 -109 -332 -209
-360 -242 -18 -22 -38 -58 -43 -81 l-11 -42 -50 -1 c-53 -2 -112 -25 -196 -79
-60 -39 -346 -215 -695 -428 -344 -211 -450 -278 -473 -302 -46 -48 -70 -149
-92 -385 -3 -36 -8 -76 -10 -90 -3 -14 -7 -52 -10 -85 -6 -77 -14 -151 -20
-195 -2 -19 -7 -64 -11 -100 -3 -36 -7 -66 -8 -68 -3 -2 -124 41 -161 58 -11
5 -81 31 -155 59 -74 27 -207 77 -294 110 -131 50 -239 80 -266 74 -3 -1 -26
-4 -51 -6 -61 -7 -64 -9 -406 -221 -161 -99 -300 -186 -310 -191 -119 -67
-577 -362 -593 -383 -35 -44 -50 -90 -50 -155 0 -80 -15 -30 246 -832 49 -148
89 -272 89 -275 5 -25 87 -265 97 -284 16 -31 78 -80 128 -102 l39 -17 -24
-31 c-47 -63 -48 -137 -4 -272 18 -55 51 -157 74 -229 37 -111 197 -606 282
-870 22 -67 34 -88 75 -128 l49 -47 -20 -26 c-14 -18 -19 -36 -16 -67 3 -37
120 -402 317 -992 65 -195 102 -265 164 -307 48 -32 942 -562 981 -581 35 -16
69 -11 86 14 13 18 15 16 26 -21 8 -26 26 -50 54 -73 34 -27 246 -157 414
-253 18 -11 81 -48 140 -84 59 -35 124 -73 143 -83 19 -11 47 -28 62 -38 14
-11 28 -19 31 -19 2 0 64 -37 138 -82 143 -87 208 -116 251 -113 34 2 88 25
88 37 0 5 4 7 10 3 5 -3 7 -12 4 -19 -15 -39 55 -113 166 -176 41 -24 108 -63
147 -87 40 -23 77 -43 83 -43 5 0 10 -4 10 -9 0 -5 8 -11 18 -15 9 -3 40 -19
67 -36 28 -17 58 -33 68 -36 9 -4 17 -10 17 -15 0 -5 4 -9 10 -9 5 0 125 -68
267 -152 307 -180 325 -190 381 -196 43 -4 119 17 145 41 6 7 28 24 49 39 20
15 42 34 50 41 7 7 31 27 53 43 22 16 105 81 185 145 80 63 289 230 465 371
176 140 329 265 340 277 25 29 29 128 9 224 -7 37 -16 82 -19 99 -3 17 -7 34
-9 37 -2 3 -7 22 -10 41 -8 46 -11 61 -46 225 -33 157 -37 136 41 197 399 316
415 331 410 374 -1 6 9 9 21 7 17 -3 47 14 108 60 88 67 420 313 644 477 274
202 274 202 336 325 30 61 75 153 99 205 24 52 66 140 92 195 140 297 144 306
122 327 -12 13 -11 17 14 33 61 40 45 10 404 741 101 206 126 274 98 274 -6 0
2 12 18 28 16 15 43 56 60 92 17 36 100 205 183 375 376 767 359 729 354 791
-4 49 -27 84 -91 140 -62 55 -66 59 -194 176 -46 42 -94 85 -105 95 -12 10
-61 55 -110 99 -49 44 -109 98 -134 120 -24 21 -53 48 -65 60 -11 11 -60 56
-110 100 -49 43 -99 88 -111 99 -11 11 -58 54 -104 95 -46 41 -88 80 -94 85
-109 100 -178 156 -210 169 -42 18 -136 22 -152 6 -6 -6 -10 16 -10 63 -1 44
-8 87 -18 109 -14 34 -124 135 -446 412 -83 71 -256 222 -260 226 -3 3 -70 62
-150 130 -80 69 -147 127 -150 131 -3 3 -36 32 -75 64 -38 32 -86 74 -105 92
-55 52 -96 68 -173 68 -56 0 -66 3 -61 15 15 38 15 79 0 108 -15 30 -69 79
-321 297 -32 28 -135 117 -229 199 -94 82 -198 172 -230 200 -33 28 -67 58
-76 66 -9 8 -45 40 -80 70 -80 68 -107 91 -195 170 -110 98 -160 110 -252 62z"/>
</g>
</svg>
